HIERARCHY
ROOT pelvis
{
  OFFSET 0 100 0
  CHANNELS 6 Xposition Yposition Zposition Zrotation Xrotation Yrotation
  JOINT pelvis_right_femur
  {
    OFFSET -10.78128 -3.44521 -0.5502486
    CHANNELS 3 Zrotation Xrotation Yrotation
    JOINT right_femur_tibia
    {
      OFFSET -0.8047443 -44.0398 -0.1307829
      CHANNELS 3 Zrotation Xrotation Yrotation
      JOINT right_tibia_foot
      {
        OFFSET 3.006224 -47.83518 -5
        CHANNELS 3 Zrotation Xrotation Yrotation
        End Site
        {
          OFFSET 0 -5 15
        }
      }
    }
  }
  JOINT pelvis_left_femur
  {
    OFFSET 10.78128 -3.44521 -0.5502486
    CHANNELS 3 Zrotation Xrotation Yrotation
    JOINT left_femur_tibia
    {
      OFFSET 0.8047443 -44.0398 -0.1307829
      CHANNELS 3 Zrotation Xrotation Yrotation
      JOINT left_tibia_foot
      {
        OFFSET -4.370144 -48.10324 -4.275266
        CHANNELS 3 Zrotation Xrotation Yrotation
        End Site
        {
          OFFSET 0 -5 15
        }
      }
    }
  }
  JOINT pelvis_spine1
  {
    OFFSET 0 6.468898 -3.129235
    CHANNELS 3 Zrotation Xrotation Yrotation
    JOINT spine1
    {
      OFFSET 0 23.15396 4.99043
      CHANNELS 3 Zrotation Xrotation Yrotation
      JOINT spine2
      {
        OFFSET 0 20.79997 -5.064912
        CHANNELS 3 Zrotation Xrotation Yrotation
        JOINT neck
        {
          OFFSET 0 14.38658 9.616178
          CHANNELS 3 Zrotation Xrotation Yrotation
          End Site
          {
            OFFSET 0 20 0
          }
        }
      }
      JOINT right_manubrium
      {
        OFFSET -5.722621 16.35077 3.967754
        CHANNELS 3 Zrotation Xrotation Yrotation
        JOINT right_clavicle
        {
          OFFSET -13.16364 1.694482 -4.693211
          CHANNELS 3 Zrotation Xrotation Yrotation
          JOINT right_humerus
          {
            OFFSET -28.5034 -0.3100689 -2.792744
            CHANNELS 3 Zrotation Xrotation Yrotation
            JOINT right_radius
            {
              OFFSET -25.15693 0.02248979 -1.271978
              CHANNELS 3 Zrotation Xrotation Yrotation
              End Site
              {
                OFFSET -15 0 0
              }
            }
          }
        }
      }
      JOINT left_manubrium
      {
        OFFSET 5.722621 16.35077 3.967754
        CHANNELS 3 Zrotation Xrotation Yrotation
        JOINT left_clavicle
        {
          OFFSET 13.16364 1.694482 -4.693211
          CHANNELS 3 Zrotation Xrotation Yrotation
          JOINT left_humerus
          {
            OFFSET 29.39168 -1.063119 -2.237045
            CHANNELS 3 Zrotation Xrotation Yrotation
            JOINT left_radius
            {
              OFFSET 24.59957 -0.9528479 0.9047498
              CHANNELS 3 Zrotation Xrotation Yrotation
              End Site
              {
                OFFSET 15 -0 -0
              }
            }
          }
        }
      }
    }
  }
}
MOTION
Frames: 23
Frame Time: 0.0416666666667
0 103.5113 0 1.207543 -0.2100971 -0.1735023 3.836576 -17.46636 11.13265 -0 40.44989 -0 -5.965182 -17.54459 -2.84838 -7.617531 8.32625 -23.93074 -0 6.233927 -0 15.38909 -12.06352 30.62391 -4.03924 -3.521799 5.413555 2.414175 10.76934 -7.487219 1.374342 21.30533 7.050595 3.610197 -24.50374 9.654002 7.594376 -20.41425 12.25306 85.16522 41.58472 -17.03365 -0 0 17.07405 -5.95541 8.336286 3.959947 5.628856 -19.00052 -1.671779 -91.38911 20.28038 20.45617 0 0 -15.79928 15.61024 13.09955 -4.26998
0.3930771 104.7774 1.39355 1.196075 -0.3261419 -0.3308197 3.757901 -17.70377 10.72888 -0 40.10771 -0 -6.078541 -17.04683 -2.771758 -7.568147 8.415522 -23.58521 -0 6.229584 -0 15.23084 -12.19291 30.26902 -4.0031 -3.433789 5.334226 2.377374 10.78364 -7.464455 1.36005 21.35684 7.033738 3.602763 -24.38354 9.577688 7.442823 -20.34288 12.24087 85.31222 41.19667 -17.08824 -0 0 16.83243 -6.295428 8.299831 4.112423 5.675729 -19.15818 -1.800582 -91.10734 20.05964 20.09182 0 0 -16.01661 15.7629 13.06131 -4.469405
0.7541924 105.5605 3.615007 0.9118607 -0.039184 -0.3088568 3.884289 -22.46515 7.38616 -0 32.09079 -0 -5.676894 -13.03598 -1.980132 -7.269285 10.40888 -20.79623 -0 5.14771 -0 12.74994 -15.74242 26.86597 -3.701149 -2.756537 4.869127 2.456183 10.24426 -7.413187 1.365409 21.60544 6.885797 3.308942 -24.25133 9.385351 5.889097 -19.63122 11.80092 86.51849 37.02578 -18.571 -0 0 14.73726 -8.057662 7.98053 4.846577 6.569096 -20.60768 -2.324038 -89.87464 20.53006 17.86786 0 0 -19.19899 15.20374 13.56552 -3.67616
1.079575 106.1218 6.320425 0.63712 0.4549639 -0.186856 4.245012 -25.48193 5.91078 -0 27.17806 -0 -5.39224 -10.71487 -1.617292 -7.102571 11.85346 -19.34061 -0 5.057918 -0 11.06486 -17.8623 24.97373 -3.490367 -2.484181 4.602172 2.620686 9.890016 -7.493461 1.359359 21.64586 6.861445 3.165583 -24.41796 9.380552 5.1557 -19.17783 11.524 87.1527 35.01768 -19.66766 -0 0 13.53591 -8.645286 7.906861 5.010251 7.057091 -21.39888 -2.452908 -89.58061 21.32524 17.05595 0 0 -20.95369 14.42037 13.95926 -2.63139
1.363571 106.5219 9.562186 0.3430757 0.9861391 0.02922746 4.65344 -28.31186 4.601818 -0 22.61207 -0 -5.43643 -8.190044 -1.266547 -6.941476 13.21489 -17.80722 -0 5.75561 -0 9.678273 -19.36479 23.17696 -3.227732 -2.288894 4.323118 2.767704 9.709921 -7.625412 1.332371 21.60696 6.846951 3.081709 -24.55569 9.325194 4.518231 -18.72021 11.30597 87.88618 33.52647 -20.75531 -0 0 12.22835 -9.242998 7.89939 5.170985 7.462599 -22.22815 -2.594337 -89.04535 21.50362 16.07064 0 0 -22.70098 14.15838 13.97567 -2.242929
1.606035 106.8624 13.32155 -0.02413048 1.4738 0.3216302 5.191899 -30.59704 3.701865 -0 19.06608 -0 -5.700143 -5.775808 -1.004723 -6.736953 14.42479 -16.39582 -0 7.31223 -0 8.299789 -20.28961 21.51218 -2.880977 -2.162153 4.018917 2.906512 9.642607 -7.798165 1.274179 21.52202 6.883909 3.052214 -24.69643 9.275602 4.051801 -18.28945 11.14204 88.57633 32.50295 -21.78299 -0 0 11.02932 -9.742808 7.990219 5.261548 7.698069 -22.93969 -2.737525 -88.66259 21.61445 15.40629 0 0 -24.01684 13.85474 13.89643 -1.822748
1.808649 107.2392 17.59553 -0.4669191 1.81933 0.6643239 5.830591 -32.2476 3.083599 -0 16.4892 -0 -6.194254 -3.478782 -0.8080088 -6.455835 15.40704 -15.0194 -0 9.895773 -0 6.855809 -20.59009 19.86304 -2.417678 -2.06656 3.68051 3.010314 9.69237 -7.985793 1.189122 21.42452 6.954493 3.065368 -24.77094 9.206954 3.698205 -17.87253 11.02907 89.23812 31.75703 -22.70674 -0 0 9.932165 -10.27327 8.184157 5.334099 7.76279 -23.54083 -2.943833 -88.39539 21.59416 14.99886 0 0 -24.83282 13.54494 13.75178 -1.429866
1.977115 107.7542 22.36643 -0.9728331 1.968915 1.017578 6.54642 -33.11337 2.718692 -0 14.89084 -0 -6.877743 -1.472796 -0.6707125 -6.076926 16.02605 -13.69529 -0 13.64287 -0 5.331155 -20.20774 18.21624 -1.829511 -1.980181 3.332385 3.065216 9.847207 -8.16239 1.08655 21.33354 7.042129 3.112032 -24.74836 9.113645 3.452574 -17.47316 10.9666 89.82214 31.22581 -23.45337 -0 0 9.016043 -10.84543 8.491696 5.392969 7.650354 -23.98423 -3.22944 -88.29123 21.45754 14.8921 0 0 -25.00631 13.22555 13.58278 -1.069799
2.119528 108.507 27.5955 -1.504245 1.872472 1.326937 7.277019 -33.02615 2.537172 -0 14.18643 -0 -7.706438 0.04898755 -0.5883904 -5.591634 16.10495 -12.43739 -0 18.6802 -0 3.770747 -19.08567 16.58847 -1.131147 -1.885263 3.017243 3.056742 10.0967 -8.297564 0.9778657 21.27345 7.119011 3.18036 -24.59607 8.979218 3.301548 -17.09935 10.95731 90.28431 30.85068 -23.94681 -0 0 8.345574 -11.46538 8.910248 5.447975 7.366449 -24.23638 -3.601809 -88.36845 21.1873 15.08597 0 0 -24.4462 12.93678 13.41911 -0.7997714
2.243993 109.5883 33.21142 -1.997864 1.494531 1.526641 7.926851 -31.80969 2.448643 -0 14.20979 -0 -8.620796 0.876288 -0.5636714 -5.010851 15.43199 -11.27188 -0 25.06242 -0 2.267571 -17.20982 15.0389 -0.3713304 -1.767473 2.798514 2.973684 10.42327 -8.355541 0.8756639 21.27354 7.151309 3.257129 -24.29047 8.783922 3.230185 -16.76668 11.00506 90.57925 30.59201 -24.11503 -0 0 7.973874 -12.11286 9.41761 5.50417 6.931113 -24.27675 -4.048167 -88.63414 20.7784 15.5623 0 0 -23.12696 12.72299 13.29008 -0.6767294
2.355274 111.067 39.10049 -2.36668 0.8183671 1.549739 8.377346 -29.31323 2.350027 -0 14.69893 -0 -9.549557 0.8311319 -0.6014271 -4.371904 13.78039 -10.22797 -0 32.69042 -0 0.9469905 -14.65483 13.66365 0.358492 -1.613623 2.756267 2.809691 10.80121 -8.29616 0.7913526 21.3669 7.10527 3.332457 -23.81867 8.50644 3.221463 -16.50006 11.11349 90.66463 30.42782 -23.90183 -0 0 7.92964 -12.74877 9.967142 5.561395 6.385605 -24.11391 -4.534821 -89.07996 20.24645 16.28279 0 0 -21.11974 12.62181 13.22446 -0.7426366
2.45217 112.9697 45.10387 -2.51204 -0.1386701 1.347031 8.515871 -25.4788 2.151388 -0 15.29543 -0 -10.41982 -0.1585025 -0.6938836 -3.739703 10.94924 -9.325825 -0 41.17989 -0 -0.05554826 -11.6336 12.58343 0.9238205 -1.411232 2.97495 2.567329 11.1983 -8.082159 0.7302068 21.57912 6.959379 3.408914 -23.18573 8.127174 3.263185 -16.33709 11.2848 90.50073 30.36771 -23.28009 -0 0 8.213794 -13.32574 10.48928 5.615011 5.798009 -23.80164 -5.009483 -89.68224 19.62715 17.19866 0 0 -18.61389 12.65663 13.23946 -1.013507
2.527997 115.2567 51.03139 -2.351248 -1.303918 0.9117078 8.275921 -20.43375 1.800987 -0 15.57756 -0 -11.17683 -1.971884 -0.8001258 -3.188881 6.833775 -8.555698 -0 49.71441 -0 -0.6213881 -8.517391 11.91815 1.169836 -1.15327 3.51557 2.262854 11.58214 -7.69524 0.6831906 21.90821 6.720568 3.510526 -22.42414 7.630899 3.35512 -16.33103 11.5189 90.04954 30.46461 -22.262 -0 0 8.805481 -13.81325 10.9036 5.666088 5.261665 -23.44897 -5.412808 -90.40125 18.95623 18.26532 0 0 -15.91255 12.83632 13.32067 -1.477755
2.576372 117.8025 56.69956 -1.86046 -2.531533 0.2964692 7.67528 -14.56401 1.293061 -0 15.16011 -0 -11.80213 -4.257651 -0.8383826 -2.756474 1.516537 -7.856417 -0 56.97422 -0 -0.6759957 -5.778458 11.75109 0.9789717 -0.8498016 4.372839 1.928829 11.92763 -7.157358 0.6185442 22.30376 6.437473 3.681105 -21.60155 7.011407 3.509289 -16.54896 11.8122 89.27516 30.80604 -20.89441 -0 0 9.680145 -14.23031 11.14443 5.741612 4.87901 -23.20474 -5.696704 -91.18211 18.23684 19.45865 0 0 -13.37434 13.15929 13.40642 -2.101181
2.601515 120.3998 61.98791 -1.117247 -3.61112 -0.3964144 6.835467 -8.484821 0.6519351 -0 13.85869 -0 -12.31353 -6.529868 -0.7129878 -2.37919 -4.65805 -7.110146 -0 61.29201 -0 -0.2184107 -3.82978 12.09309 0.3516327 -0.5392101 5.435202 1.609919 12.21677 -6.54195 0.4826682 22.66603 6.196964 3.960288 -20.81474 6.283324 3.736025 -17.05726 12.15398 88.15053 31.46375 -19.23091 -0 0 10.82973 -14.66224 11.19374 5.913145 4.729242 -23.20044 -5.838554 -91.96279 17.42139 20.78187 0 0 -11.28974 13.61405 13.40112 -2.832259
2.627424 122.7985 66.88728 -0.3102566 -4.32699 -1.056297 5.962571 -2.852171 -0.09046897 -0 11.83365 -0 -12.73934 -8.412522 -0.3731512 -1.871435 -11.08354 -6.178702 -0 61.13441 -0 0.6435132 -2.824993 12.8657 -0.5423423 -0.2836771 6.484994 1.349674 12.42483 -5.954352 0.2222782 22.88275 6.09373 4.342991 -20.15721 5.501781 4.02053 -17.89043 12.51743 86.67326 32.41107 -17.29245 -0 0 12.26405 -15.23368 11.10102 6.291609 4.832183 -23.46448 -5.839194 -92.69403 16.44074 22.25161 0 0 -9.734723 14.16551 13.23145 -3.600095
2.698276 124.7719 71.50601 0.313722 -4.557948 -1.608849 5.271822 1.908492 -0.9005433 -0 9.574069 -0 -13.07987 -9.879318 0.1412361 -1.011289 -17.00221 -5.00063 -0 55.77413 -0 1.668274 -2.570139 13.91674 -1.405402 -0.1447051 7.267619 1.171895 12.50389 -5.478955 -0.1744997 22.89222 6.184211 4.758182 -19.66559 4.774084 4.311938 -19.01281 12.84822 84.88365 33.46917 -15.0547 -0 0 13.98271 -16.04556 10.96933 6.987198 5.133628 -23.86555 -5.708291 -93.36468 15.27644 23.86382 0 0 -8.499881 14.73033 12.91783 -4.310035
2.867429 126.1736 76.02533 0.5553731 -4.353672 -2.033605 4.877649 5.753253 -1.735804 -0 7.677766 -0 -13.29043 -11.25853 0.7185857 0.2764932 -21.70232 -3.721407 -0 45.76674 -0 2.508383 -2.650299 15.06379 -1.946347 -0.1578846 7.60396 1.064249 12.38897 -5.125769 -0.6457152 22.72797 6.457678 5.103261 -19.28037 4.239045 4.545136 -20.2962 13.06273 82.87306 34.35375 -12.49184 -0 0 15.93663 -17.13 10.91598 8.053333 5.530155 -24.14636 -5.456379 -94.00915 14.01815 25.55196 0 0 -7.17457 15.17292 12.60392 -4.860651
3.180238 126.9611 80.63217 0.3601333 -3.923696 -2.360231 4.728859 8.924309 -2.54963 -0 6.573626 -0 -13.3146 -12.95634 1.253468 1.786602 -24.72732 -2.741608 -0 32.90106 -0 2.81329 -2.685091 16.15334 -2.016527 -0.3241247 7.46864 0.9727894 12.03533 -4.820095 -1.0631 22.50864 6.845005 5.315472 -18.86116 4.013184 4.683365 -21.53315 13.06963 80.77741 34.81222 -9.651403 -0 0 18.00856 -18.46141 11.03888 9.448188 5.921938 -24.04188 -5.103886 -94.68044 12.85051 27.15847 0 0 -5.3564 15.35268 12.5122 -5.194198
3.65852 127.1853 85.4657 -0.158688 -3.545611 -2.660657 4.653643 11.71209 -3.308773 -0 6.375286 -0 -13.14276 -15.1103 1.713336 3.118807 -26.01062 -2.548679 -0 19.63969 -0 2.369192 -2.514601 17.11481 -1.655915 -0.6111996 6.981836 0.8165698 11.46239 -4.44725 -1.282663 22.381 7.251638 5.413655 -18.25927 4.135246 4.738489 -22.49406 12.81386 78.76342 34.7365 -6.699102 -0 0 20.0206 -19.99704 11.39416 11.03564 6.259428 -23.41034 -4.696903 -95.40919 11.9762 28.45452 0 0 -2.861985 15.20036 12.84755 -5.339763
4.291865 126.962 90.59442 -0.7871386 -3.453894 -3.028765 4.4854 14.27679 -4.000017 -0 6.912627 -0 -12.83179 -17.42506 2.132418 3.942171 -25.86741 -3.390329 -0 8.321291 -0 1.197466 -2.209554 17.97067 -1.03788 -0.9581654 6.335401 0.5244242 10.768 -3.922734 -1.211203 22.4526 7.591019 5.471126 -17.40936 4.54526 4.739111 -23.01759 12.31694 77.02285 34.14924 -3.90541 -0 0 21.76337 -21.69714 11.96752 12.63038 6.554681 -22.30471 -4.312429 -96.18898 11.52799 29.23502 -0 0 0.1780206 14.75651 13.70174 -5.384649
5.038653 126.4401 96.02246 -1.326176 -3.766562 -3.541598 4.16892 16.61783 -4.620375 -0 7.878215 -0 -12.46893 -19.30001 2.546924 4.17453 -24.83225 -5.088611 -0 0.441575 -0 -0.4570243 -1.953483 18.78338 -0.3653549 -1.289189 5.706868 0.07454169 10.09483 -3.23927 -0.8470718 22.75042 7.806523 5.549097 -16.37828 5.115731 4.675024 -23.08564 11.67763 75.76723 33.09927 -1.578055 -0 0 23.04824 -23.51295 12.65952 14.07034 6.852074 -20.94393 -4.040574 -96.9958 11.52257 29.44129 -0 0 3.389311 14.13135 15.01281 -5.381034
5.837574 125.7684 101.7141 -1.680312 -4.476843 -4.227157 3.76522 18.64193 -5.16815 -0 9.005436 -0 -12.12412 -20.16828 2.946565 3.935788 -23.41748 -7.18424 0 -3.678293 0 -2.257007 -1.906663 19.58267 0.2180209 -1.53928 5.200834 -0.4964234 9.567384 -2.458469 -0.2663256 23.22566 7.877601 5.654018 -15.32216 5.717132 4.487957 -22.8174 11.02389 75.176 31.59745 0.05163966 -0 0 23.77493 -25.37264 13.32964 15.27351 7.183738 -19.59434 -3.949001 -97.80851 11.87731 29.19521 -0 0 6.351954 13.42347 16.60618 -5.291094
